<?xml version="1.0" standalone="no"?>
<!DOCTYPE svg PUBLIC "-//W3C//DTD SVG 20010904//EN"
 "http://www.w3.org/TR/2001/REC-SVG-20010904/DTD/svg10.dtd">
<svg version="1.0" xmlns="http://www.w3.org/2000/svg"
 width="300.000000pt" height="438.000000pt" viewBox="0 0 300.000000 438.000000"
 preserveAspectRatio="xMidYMid meet">
<metadata>
Created by potrace 1.10, written by Peter Selinger 2001-2011
</metadata>
<g transform="translate(0.000000,438.000000) scale(0.050000,-0.050000)"
fill="#000000" stroke="none">
<path d="M4080 8729 c-359 -54 -678 -147 -1073 -311 -221 -93 -164 -92 120 0
1817 592 2695 141 2646 -1358 -20 -611 -176 -1056 -592 -1690 -437 -665 -540
-1021 -541 -1858 -1 -1443 -584 -3127 -1130 -3264 l-55 -14 14 198 c12 177 47
448 142 1128 125 896 -23 1709 -392 2155 -57 69 -111 125 -120 125 -10 0 25
-56 77 -125 125 -166 213 -363 289 -649 l63 -236 1 -540 c0 -589 -29 -834
-168 -1402 -127 -522 -126 -729 2 -837 129 -109 312 -37 555 220 613 648 964
1717 1072 3259 68 976 86 1042 425 1636 437 767 585 1223 585 1810 1 1364
-638 1947 -1920 1753z"/>
<path d="M950 8229 c-694 -130 -1056 -796 -920 -1695 69 -459 235 -803 820
-1693 348 -530 392 -718 253 -1086 -263 -698 -292 -1150 -132 -2075 140 -816
252 -1080 456 -1080 138 0 206 141 302 622 321 1623 834 2624 1596 3116 150
96 175 123 60 64 -831 -428 -1448 -1460 -1878 -3141 -49 -192 -92 -352 -95
-355 -11 -11 -113 466 -142 664 -125 850 -64 1538 185 2075 214 462 117 813
-416 1505 -1055 1373 -1073 2666 -40 2909 219 51 525 54 1054 9 770 -65 1516
-23 1795 100 162 72 138 79 -44 12 -354 -129 -832 -132 -1634 -11 -574 87
-973 107 -1220 60z"/>
</g>
</svg>
